<svg width="900" height="1100" viewBox="0 0 900 1100" fill="none" xmlns="http://www.w3.org/2000/svg">
  <defs>
    <linearGradient id="bg" x1="0" y1="0" x2="1" y2="1">
      <stop offset="0%" stop-color="#f4c8a8"/>
      <stop offset="55%" stop-color="#d5956b"/>
      <stop offset="100%" stop-color="#8b5f3c"/>
    </linearGradient>
    <radialGradient id="glow" cx="0" cy="0" r="1" gradientUnits="userSpaceOnUse" gradientTransform="translate(240 260) rotate(45) scale(360 380)">
      <stop offset="0%" stop-color="#fff3e6"/>
      <stop offset="100%" stop-color="transparent"/>
    </radialGradient>
  </defs>
  <rect width="900" height="1100" rx="80" fill="url(#bg)"/>
  <circle cx="260" cy="260" r="320" fill="url(#glow)"/>
  <path d="M450 610c120 0 210-95 210-220 0-123-90-208-210-208S240 267 240 390c0 125 90 220 210 220z" fill="#f3d1b8"/>
  <path d="M250 910c60-150 170-210 200-210s140 60 200 210" fill="#2f2a29" opacity="0.18"/>
  <path d="M350 360c40-60 100-70 170-50 50 14 80 44 100 90-10-70-50-130-130-150-70-20-150-10-200 60z" fill="#3e2c1f"/>
  <path d="M360 640c40 30 80 40 140 30" stroke="#d08b6b" stroke-width="12" stroke-linecap="round"/>
  <path d="M310 520c40-20 80-20 120 0" stroke="#c07a5c" stroke-width="12" stroke-linecap="round"/>
  <path d="M500 520c40-20 80-20 120 0" stroke="#c07a5c" stroke-width="12" stroke-linecap="round"/>
</svg>
